<svg id="Iconly_Light_Hide" data-name="Iconly/Light/Hide" xmlns="http://www.w3.org/2000/svg" width="24" height="24" viewBox="0 0 24 24">
  <g id="Hide" transform="translate(2 3.5)">
    <path id="Stroke_1" data-name="Stroke 1" d="M.925,5.395A3.123,3.123,0,0,1,0,3.166,3.16,3.16,0,0,1,5.394.925" transform="translate(6.836 5.472)" fill="none" stroke="#b3bcc9" stroke-linecap="round" stroke-linejoin="round" stroke-miterlimit="10" stroke-width="1.5"/>
    <path id="Stroke_3" data-name="Stroke 3" d="M2.537,0A3.158,3.158,0,0,1,0,2.542" transform="translate(10.568 9.199)" fill="none" stroke="#b3bcc9" stroke-linecap="round" stroke-linejoin="round" stroke-miterlimit="10" stroke-width="1.5"/>
    <path id="Stroke_5" data-name="Stroke 5" d="M3.9,12.638A13.43,13.43,0,0,1,0,7.3,13.592,13.592,0,0,1,3.934,1.938,8.534,8.534,0,0,1,9.25,0a8.554,8.554,0,0,1,5.336,1.957" transform="translate(0.75 1.334)" fill="none" stroke="#b3bcc9" stroke-linecap="round" stroke-linejoin="round" stroke-miterlimit="10" stroke-width="1.5"/>
    <path id="Stroke_7" data-name="Stroke 7" d="M9.98,0a15.359,15.359,0,0,1,1.8,3.146c-1.967,4.557-5.443,7.3-9.25,7.3A7.981,7.981,0,0,1,0,10.035" transform="translate(7.468 5.491)" fill="none" stroke="#b3bcc9" stroke-linecap="round" stroke-linejoin="round" stroke-miterlimit="10" stroke-width="1.5"/>
    <path id="Stroke_9" data-name="Stroke 9" d="M15.774,0,0,15.774" transform="translate(2.113 0.75)" fill="none" stroke="#b3bcc9" stroke-linecap="round" stroke-linejoin="round" stroke-miterlimit="10" stroke-width="1.5"/>
  </g>
</svg>
